<svg width="81" height="73" viewBox="0 0 81 73" fill="none" xmlns="http://www.w3.org/2000/svg">
<path d="M77.5944 39.6396C75.5038 40.024 77.2572 42.7914 77.1224 43.7141C76.9876 44.6365 76.0434 45.021 76.0434 45.021C76.0434 45.021 77.0551 45.9435 76.0434 47.1735C75.0318 48.3266 74.9642 49.0955 75.0318 50.4791C75.1665 52.0167 75.6386 55.9373 71.0525 55.7066C65.1174 55.3993 63.0942 53.9386 61.6104 55.1687C59.9241 56.5524 60.1941 60.7035 61.1383 63.548C61.8801 65.7005 65.1176 69.2368 68.4897 72.9271H30.9233C34.7675 67.2382 38.8817 63.548 39.8934 59.0124C41.1072 53.4775 40.163 48.7881 39.5563 45.6362C38.6792 40.9468 34.2279 31.7985 33.4187 23.0346C32.2049 9.5814 39.7584 -0.796938 54.7311 0.0487193C68.2871 0.740647 74.6944 11.2727 75.5713 16.8846C75.9759 19.4215 76.5155 22.6501 76.2456 25.8022C75.976 28.4927 79.4831 34.0279 80.5619 36.1036C81.9784 38.7939 79.6851 39.332 77.5944 39.6396Z" fill="#D71175"/>
<path d="M0.438071 36.1031C1.51702 34.0275 5.0241 28.4922 4.75436 25.8017C4.4845 22.6498 5.02397 19.421 5.4287 16.8841C6.30573 11.2721 12.7131 0.740013 26.2691 0.0482311C41.2418 -0.797426 48.7953 9.58091 47.5815 23.0341C46.772 31.798 42.321 40.9464 41.444 45.6357C40.8372 48.7876 39.893 53.477 41.1068 59.0119C42.1184 63.5476 46.2327 67.2377 50.0769 72.9266H12.5107C15.8829 69.2363 19.1202 65.7 19.862 63.5475C20.8062 60.7031 21.0761 56.5519 19.39 55.1682C17.9062 53.9381 15.8829 55.3988 9.9478 55.7061C5.36152 55.9369 5.83369 52.0162 5.9683 50.4786C6.03573 49.095 5.9683 48.3261 4.95666 47.173C3.94502 45.943 4.95666 45.0205 4.95666 45.0205C4.95666 45.0205 4.01246 44.636 3.87772 43.7136C3.74272 42.7911 5.49613 40.0235 3.40568 39.6391C1.31484 39.3319 -0.978426 38.7937 0.438071 36.1031Z" fill="#00AFE6"/>
<path d="M41.4439 45.6356C42.3209 40.9463 46.7719 31.7979 47.5814 23.0341C48.3137 14.9179 45.8537 7.9222 40.5002 3.8335C35.1464 7.92205 32.6863 14.9178 33.4187 23.0341C34.2279 31.7979 38.6792 40.9463 39.5563 45.6355C40.163 48.7875 41.1072 53.4768 39.8934 59.0117C38.8818 63.5474 34.7675 67.2375 30.9233 72.9264H50.0768C46.2326 67.2375 42.1185 63.5473 41.1067 59.0117C39.8929 53.477 40.8371 48.7877 41.4439 45.6356Z" fill="#62317D"/>
</svg>
